<svg xmlns="http://www.w3.org/2000/svg" xmlns:xlink="http://www.w3.org/1999/xlink" xmlns:inkscape="http://www.inkscape.org/namespaces/inkscape" version="1.1" width="612" height="792" viewBox="0 0 612 792">
<defs>
<clipPath id="clip_0">
<path transform="matrix(1,0,0,-1,0,792)" d="M.00000912 0H612V792H.00000912Z" clip-rule="evenodd"/>
</clipPath>
<clipPath id="clip_1">
<path transform="matrix(1,0,0,-1,0,792)" d="M.00000912 0H612V792H.00000912Z" clip-rule="evenodd"/>
</clipPath>
<clipPath id="clip_2">
<path transform="matrix(1,0,0,-1,0,792)" d="M.00000912 0H612V792H.00000912Z" clip-rule="evenodd"/>
</clipPath>
<clipPath id="clip_3">
<path transform="matrix(1,0,0,-1,0,792)" d="M.00000912 0H612V792H.00000912Z" clip-rule="evenodd"/>
</clipPath>
<clipPath id="clip_4">
<path transform="matrix(1,0,0,-1,0,792)" d="M.00000912 0H612V792H.00000912Z" clip-rule="evenodd"/>
</clipPath>
<clipPath id="clip_5">
<path transform="matrix(1,0,0,-1,0,792)" d="M.00000912 0H612V792H.00000912Z" clip-rule="evenodd"/>
</clipPath>
<clipPath id="clip_6">
<path transform="matrix(1,0,0,-1,0,792)" d="M.00000912 0H612V792H.00000912Z" clip-rule="evenodd"/>
</clipPath>
<clipPath id="clip_7">
<path transform="matrix(1,0,0,-1,0,792)" d="M.00000912 0H612V792H.00000912Z" clip-rule="evenodd"/>
</clipPath>
<clipPath id="clip_8">
<path transform="matrix(1,0,0,-1,0,792)" d="M.00000912 0H612V792H.00000912Z" clip-rule="evenodd"/>
</clipPath>
<clipPath id="clip_9">
<path transform="matrix(1,0,0,-1,0,792)" d="M.00000912 0H612V792H.00000912Z" clip-rule="evenodd"/>
</clipPath>
<clipPath id="clip_10">
<path transform="matrix(1,0,0,-1,0,792)" d="M.00000912 0H612V792H.00000912Z" clip-rule="evenodd"/>
</clipPath>
<clipPath id="clip_11">
<path transform="matrix(1,0,0,-1,0,792)" d="M.00000912 0H612V792H.00000912Z" clip-rule="evenodd"/>
</clipPath>
<clipPath id="clip_12">
<path transform="matrix(1,0,0,-1,0,792)" d="M.00000912 0H612V792H.00000912Z" clip-rule="evenodd"/>
</clipPath>
<clipPath id="clip_13">
<path transform="matrix(1,0,0,-1,0,792)" d="M.00000912 0H612V792H.00000912Z" clip-rule="evenodd"/>
</clipPath>
<clipPath id="clip_14">
<path transform="matrix(1,0,0,-1,0,792)" d="M.00000912 0H612V792H.00000912Z" clip-rule="evenodd"/>
</clipPath>
<clipPath id="clip_15">
<path transform="matrix(1,0,0,-1,0,792)" d="M.00000912 0H612V792H.00000912Z" clip-rule="evenodd"/>
</clipPath>
<clipPath id="clip_16">
<path transform="matrix(1,0,0,-1,0,792)" d="M.00000912 0H612V792H.00000912Z" clip-rule="evenodd"/>
</clipPath>
<clipPath id="clip_17">
<path transform="matrix(1,0,0,-1,0,792)" d="M.00000912 0H612V792H.00000912Z" clip-rule="evenodd"/>
</clipPath>
</defs>
<g>
<g clip-path="url(#clip_0)">
<text xml:space="preserve" transform="matrix(1 0 -0 1 0 792)" font-size="24" font-family="CambriaMath"><tspan y="-680.82" x="225.74">&#x1d463;</tspan></text>
</g>
<g clip-path="url(#clip_1)">
<text xml:space="preserve" transform="matrix(1 0 -0 1 0 792)" font-size="24" font-family="CambriaMath"><tspan y="-680.82" x="246.14">=</tspan></text>
</g>
<g clip-path="url(#clip_2)">
<text xml:space="preserve" transform="matrix(1 0 -0 1 0 792)" font-size="24" font-family="CambriaMath"><tspan y="-699" x="281.66">&#x1d449;</tspan></text>
</g>
<g clip-path="url(#clip_3)">
<text xml:space="preserve" transform="matrix(1 0 -0 1 0 792)" font-size="17.52" font-family="CambriaMath"><tspan y="-694.08" x="291.02 307.2435 316.91456">max</tspan></text>
</g>
<g clip-path="url(#clip_4)">
<text xml:space="preserve" transform="matrix(1 0 -0 1 0 792)" font-size="24" font-family="CambriaMath"><tspan y="-699" x="327.52"> </tspan></text>
</g>
<g clip-path="url(#clip_5)">
<text xml:space="preserve" transform="matrix(1 0 -0 1 0 792)" font-size="24" font-family="CambriaMath"><tspan y="-699" x="332.8">[</tspan></text>
</g>
<g clip-path="url(#clip_6)">
<text xml:space="preserve" transform="matrix(1 0 -0 1 0 792)" font-size="24" font-family="CambriaMath"><tspan y="-699" x="341.2">&#x1d446;</tspan></text>
</g>
<g clip-path="url(#clip_7)">
<text xml:space="preserve" transform="matrix(1 0 -0 1 0 792)" font-size="24" font-family="CambriaMath"><tspan y="-699" x="354.34">]</tspan></text>
</g>
<g clip-path="url(#clip_8)">
<text xml:space="preserve" transform="matrix(1 0 -0 1 0 792)" font-size="17.52" font-family="CambriaMath"><tspan y="-707.76" x="362.74">&#x1d45b;</tspan></text>
</g>
<g clip-path="url(#clip_9)">
<text xml:space="preserve" transform="matrix(1 0 -0 1 0 792)" font-size="24" font-family="CambriaMath"><tspan y="-664.5" x="270.74">&#x1d43e;</tspan></text>
</g>
<g clip-path="url(#clip_10)">
<text xml:space="preserve" transform="matrix(1 0 -0 1 0 792)" font-size="17.52" font-family="CambriaMath"><tspan y="-659.56" x="285.56">&#x1d440;</tspan></text>
</g>
<g clip-path="url(#clip_11)">
<text xml:space="preserve" transform="matrix(1 0 -0 1 0 792)" font-size="17.52" font-family="CambriaMath"><tspan y="-675.12" x="302.42">&#x1d45b;</tspan></text>
</g>
<g clip-path="url(#clip_12)">
<text xml:space="preserve" transform="matrix(1 0 -0 1 0 792)" font-size="24" font-family="CambriaMath"><tspan y="-664.5" x="320.44">+</tspan></text>
</g>
<g clip-path="url(#clip_13)">
<text xml:space="preserve" transform="matrix(1 0 -0 1 0 792)" font-size="24" font-family="CambriaMath"><tspan y="-664.5" x="343.66">[</tspan></text>
</g>
<g clip-path="url(#clip_14)">
<text xml:space="preserve" transform="matrix(1 0 -0 1 0 792)" font-size="24" font-family="CambriaMath"><tspan y="-664.5" x="352.12">&#x1d446;</tspan></text>
</g>
<g clip-path="url(#clip_15)">
<text xml:space="preserve" transform="matrix(1 0 -0 1 0 792)" font-size="24" font-family="CambriaMath"><tspan y="-664.5" x="365.26">]</tspan></text>
</g>
<g clip-path="url(#clip_16)">
<text xml:space="preserve" transform="matrix(1 0 -0 1 0 792)" font-size="17.52" font-family="CambriaMath"><tspan y="-671.7" x="373.66">&#x1d45b;</tspan></text>
</g>
<path transform="matrix(1,0,0,-1,0,792)" d="M270.74 686.88H386.32V688.44H270.74Z" fill-rule="evenodd"/>
<g clip-path="url(#clip_17)">
<text xml:space="preserve" transform="matrix(1 0 -0 1 0 792)" font-size="24" font-family="Aptos"><tspan y="-680.82" x="386.32"> </tspan></text>
</g>
</g>
</svg>
